<svg xmlns="http://www.w3.org/2000/svg" xmlns:xlink="http://www.w3.org/1999/xlink" version="1.1" width="256" height="256" viewBox="0 0 256 256" xml:space="preserve">
<desc>Created with Fabric.js 1.7.22</desc>
<defs>
</defs>
<g transform="translate(128 128) scale(0.72 0.72)" style="">
	<g style="stroke: none; stroke-width: 0; stroke-dasharray: none; stroke-linecap: butt; stroke-linejoin: miter; stroke-miterlimit: 10; fill: none; fill-rule: nonzero; opacity: 1;" transform="translate(-175.05 -175.05000000000004) scale(3.89 3.89)" >
	<path d="M 87 90 H 3 c -1.657 0 -3 -1.343 -3 -3 V 3 c 0 -1.657 1.343 -3 3 -3 h 69.037 c 0.796 0 1.559 0.316 2.121 0.879 l 14.963 14.963 C 89.684 16.404 90 17.167 90 17.963 V 87 C 90 88.657 88.657 90 87 90 z M 6 84 h 78 V 19.206 L 70.795 6 H 6 V 84 z" style="stroke: none; stroke-width: 1; stroke-dasharray: none; stroke-linecap: butt; stroke-linejoin: miter; stroke-miterlimit: 10; fill: rgb(0,0,0); fill-rule: nonzero; opacity: 1;" transform=" matrix(1 0 0 1 0 0) " stroke-linecap="round" />
	<path d="M 71.217 90 H 18.783 c -1.657 0 -3 -1.343 -3 -3 V 52.038 c 0 -3.837 3.122 -6.959 6.959 -6.959 h 44.514 c 3.838 0 6.96 3.122 6.96 6.959 V 87 C 74.217 88.657 72.874 90 71.217 90 z M 21.783 84 h 46.434 V 52.038 c 0 -0.528 -0.431 -0.959 -0.96 -0.959 H 22.743 c -0.529 0 -0.959 0.431 -0.959 0.959 V 84 z" style="stroke: none; stroke-width: 1; stroke-dasharray: none; stroke-linecap: butt; stroke-linejoin: miter; stroke-miterlimit: 10; fill: rgb(0,0,0); fill-rule: nonzero; opacity: 1;" transform=" matrix(1 0 0 1 0 0) " stroke-linecap="round" />
	<path d="M 55.754 24.496 H 34.246 c -3.837 0 -6.959 -3.122 -6.959 -6.959 V 3 c 0 -1.657 1.343 -3 3 -3 h 29.426 c 1.657 0 3 1.343 3 3 v 14.537 C 62.713 21.374 59.591 24.496 55.754 24.496 z M 33.287 6 v 11.537 c 0 0.529 0.43 0.959 0.959 0.959 h 21.508 c 0.528 0 0.959 -0.43 0.959 -0.959 V 6 H 33.287 z" style="stroke: none; stroke-width: 1; stroke-dasharray: none; stroke-linecap: butt; stroke-linejoin: miter; stroke-miterlimit: 10; fill: rgb(0,0,0); fill-rule: nonzero; opacity: 1;" transform=" matrix(1 0 0 1 0 0) " stroke-linecap="round" />
	<path d="M 42.077 78.398 c -0.844 0 -1.65 -0.355 -2.219 -0.981 l -6.279 -6.904 c -1.115 -1.226 -1.025 -3.123 0.201 -4.238 c 1.225 -1.114 3.123 -1.025 4.238 0.201 l 3.914 4.304 l 9.93 -12.412 c 1.036 -1.293 2.925 -1.503 4.217 -0.469 c 1.294 1.035 1.504 2.923 0.469 4.217 L 44.419 77.272 c -0.549 0.686 -1.37 1.097 -2.248 1.124 C 42.14 78.397 42.108 78.398 42.077 78.398 z" style="stroke: none; stroke-width: 1; stroke-dasharray: none; stroke-linecap: butt; stroke-linejoin: miter; stroke-miterlimit: 10; fill: rgb(0,0,0); fill-rule: nonzero; opacity: 1;" transform=" matrix(1 0 0 1 0 0) " stroke-linecap="round" />
</g>
</g>
</svg>